<svg t="1705903803629" class="icon" viewBox="0 0 1024 1024" version="1.1" xmlns="http://www.w3.org/2000/svg" p-id="4355" width="200" height="200"><path d="M914.69065 310.630116H738.686429c22.187281-28.06207 35.333669-62.750034 35.333669-95.75364 0-29.888668-10.222808-55.588952-29.606235-74.465843-14.60562-14.184019-41.797881-31.095143-88.593581-31.095144-45.390702 0-83.141416 15.281001-112.297398 45.50429-13.260999 13.764464-23.483807 29.606236-31.573026 46.123388-8.090243-16.518176-18.300771-32.358924-31.557677-46.123388-29.127329-30.223288-66.908742-45.504289-112.271815-45.50429-46.822305 0-74.015589 16.910101-88.59358 31.095144-19.379334 18.875868-29.632842 44.577176-29.632842 74.465843 0 33.003606 13.174018 67.69157 35.365392 95.75364H109.308326V512h57.52709v402.683487h690.328145V512h57.527089V310.630116z m-488.985889 143.815165v-86.26147h172.590478v86.26147H425.704761z m159.222033-259.681848c18.143183-18.82061 41.345581-27.948483 70.893488-27.948483 21.743167 0 38.539681 5.111404 48.485174 14.803118 10.05294 9.830883 12.189599 23.510413 12.189599 33.258408 0 44.267114-39.045193 95.75364-89.434736 95.75364h-85.280122c3.147684-34.577447 13.876004-85.503202 43.146597-115.866683z m-277.506784 20.113043c0-9.747995 2.134612-23.427525 12.219275-33.258408 9.943446-9.691714 26.712332-14.803118 48.481081-14.803118 29.493672 0 52.639789 9.127873 70.756366 27.80829 30.980533 32.021234 40.336603 84.099229 43.14455 116.006876h-85.135836c-50.39159 0-89.465436-51.486525-89.465436-95.75364zM166.835416 368.183811h201.343278v86.26147H166.835416v-86.26147z m57.527089 488.947004V512H425.704761v345.130815H224.362505z m258.866275 0V512h57.54244v345.130815h-57.54244z m316.407691 0H598.295239V512h201.341232v345.130815z m57.52709-402.685534H655.820282v-86.26147h201.343279v86.26147z" fill="#d4237a" p-id="4356"></path></svg>