<svg t="1705821076474" class="icon" viewBox="0 0 1024 1024" version="1.1" xmlns="http://www.w3.org/2000/svg" p-id="4221" width="200" height="200"><path d="M266.4 255.04c-61.85 59.51-95.9 139.55-95.9 225.33 0 20.03 16.23 36.26 36.26 36.26s36.26-16.23 36.26-36.26c0-65.9 26.17-127.36 73.66-173.09 14.43-13.88 14.87-36.84 0.98-51.26-13.9-14.45-36.85-14.89-51.26-0.98z" fill="#333333" p-id="4222"></path><path d="M921.79 815.35c-17.7 0-34.11 4.93-48.64 12.87L766.37 721.45c65.61-76.31 105.57-175.28 105.57-283.57 0-240.31-195.5-435.81-435.8-435.81S0.34 197.57 0.34 437.88s195.5 435.81 435.8 435.81c105.95 0 203.12-38.08 278.74-101.18l110.98 110.98c-3.82 10.71-6.28 22.08-6.28 34.09 0 56.37 45.84 102.21 102.21 102.21S1024 973.95 1024 917.58c0-56.38-45.84-102.23-102.21-102.23zM72.86 437.88c0-200.32 162.96-363.29 363.28-363.29 200.31 0 363.28 162.97 363.28 363.29S636.44 801.17 436.14 801.17c-200.32 0-363.28-162.98-363.28-363.29z m848.93 509.38c-16.38 0-29.7-13.31-29.7-29.7 0-16.38 13.31-29.7 29.7-29.7 16.38 0 29.7 13.31 29.7 29.7-0.01 16.39-13.32 29.7-29.7 29.7z" fill="#333333" p-id="4223"></path></svg>